<?xml version="1.0" encoding="utf-8"?>
<!-- Generator: Adobe Illustrator 25.4.1, SVG Export Plug-In . SVG Version: 6.00 Build 0)  -->
<svg version="1.1" id="Layer_1" xmlns="http://www.w3.org/2000/svg" xmlns:xlink="http://www.w3.org/1999/xlink" x="0px" y="0px"
	 width="152px" height="51.93px" viewBox="0 0 152 51.93" style="enable-background:new 0 0 152 51.93;" xml:space="preserve">
<style type="text/css">
	.st0{fill:#003F84;}
</style>
<g>
	<path class="st0" d="M4.44,20.99c-1.26-0.74-2.27-1.75-3.01-3.01s-1.12-2.64-1.12-4.13V9.36h4.42v4.25c0,0.67,0.18,1.3,0.53,1.9
		c0.35,0.59,0.82,1.06,1.42,1.42c0.59,0.35,1.22,0.53,1.9,0.53c0.7,0,1.35-0.18,1.94-0.53c0.59-0.35,1.06-0.82,1.42-1.42
		c0.35-0.59,0.53-1.22,0.53-1.9V8.43h4.27v5.42c0,1.49-0.36,2.86-1.08,4.13c-0.72,1.26-1.7,2.27-2.95,3.01
		c-1.25,0.74-2.62,1.12-4.13,1.12C7.08,22.11,5.71,21.74,4.44,20.99z M6.63,5.64h3.72v3.72H6.63V5.64z M15.44,17.52
		c-0.45-0.42-0.74-0.97-0.88-1.66c-0.14-0.69-0.2-1.56-0.2-2.62V8.43h2.57v4.54c0,0.16,0.04,0.29,0.13,0.38
		c0.09,0.1,0.21,0.14,0.37,0.14h0.96c0.16,0,0.24,0.08,0.24,0.24v4.18c0,0.16-0.08,0.24-0.24,0.24h-0.96
		C16.55,18.15,15.88,17.94,15.44,17.52z"/>
	<path class="st0" d="M18.39,13.49h1.68c0.16,0,0.28-0.05,0.37-0.14c0.09-0.1,0.13-0.22,0.13-0.38V8.4h4.42v4.56
		c0,0.16,0.04,0.29,0.13,0.38c0.09,0.1,0.21,0.14,0.37,0.14h1.68c0.16,0,0.24,0.08,0.24,0.24v4.18c0,0.16-0.08,0.24-0.24,0.24h-1.68
		c-0.58,0-1.08-0.06-1.5-0.19c-0.42-0.13-0.83-0.34-1.21-0.62c-0.38,0.29-0.79,0.5-1.21,0.62c-0.42,0.13-0.92,0.19-1.5,0.19h-1.68
		c-0.16,0-0.24-0.08-0.24-0.24v-4.18C18.15,13.57,18.23,13.49,18.39,13.49z M19.06,20.07h3.72v3.72h-3.72V20.07z M22.78,20.07h3.72
		v3.72h-3.72V20.07z"/>
	<path class="st0" d="M26.93,17.91v-4.18c0-0.16,0.08-0.24,0.24-0.24h0.96c0.16,0,0.28-0.05,0.37-0.14c0.09-0.1,0.13-0.22,0.13-0.38
		V8.4h3.53v4.85c0,1.44-0.34,2.62-1.02,3.53c-0.68,0.91-1.68,1.37-3.01,1.37h-0.96C27.01,18.15,26.93,18.07,26.93,17.91z
		 M30.54,16.83c-0.68-0.91-1.02-2.09-1.02-3.53V8.4h3.53v4.61c0,0.16,0.04,0.29,0.13,0.38c0.09,0.1,0.21,0.14,0.37,0.14
		s0.28-0.05,0.37-0.14s0.13-0.22,0.13-0.38V8.4h3.53v4.9c0,1.44-0.34,2.62-1.02,3.53c-0.68,0.91-1.68,1.37-3.01,1.37
		S31.22,17.74,30.54,16.83z M35.97,16.83c-0.68-0.91-1.02-2.09-1.02-3.53V8.4h3.53v4.61c0,0.16,0.04,0.29,0.13,0.38
		s0.21,0.14,0.37,0.14s0.28-0.05,0.37-0.14s0.13-0.22,0.13-0.38V7.73h3.53v5.57c0,1.44-0.34,2.62-1.02,3.53
		c-0.68,0.91-1.68,1.37-3.01,1.37C37.65,18.2,36.65,17.74,35.97,16.83z M41.39,16.78c-0.68-0.91-1.02-2.09-1.02-3.53V7.73h3.53v5.23
		c0,0.16,0.04,0.29,0.13,0.38c0.09,0.1,0.21,0.14,0.37,0.14h0.96c0.16,0,0.24,0.08,0.24,0.24v4.18c0,0.16-0.08,0.24-0.24,0.24H44.4
		C43.08,18.15,42.07,17.69,41.39,16.78z"/>
	<path class="st0" d="M45.12,17.91v-4.18c0-0.16,0.08-0.24,0.24-0.24h5.38c1.09,0,2.02-0.34,2.78-1.01l1.9-1.68l-2.76-1.34
		c-0.21-0.1-0.38-0.14-0.53-0.14c-0.29,0-0.58,0.13-0.86,0.38l-2.5,2.76L45.7,9.77l2.52-3.07c0.51-0.61,1.11-1.05,1.8-1.33
		c0.69-0.28,1.38-0.42,2.06-0.42c0.8,0,1.56,0.19,2.28,0.58l5.14,2.4c0.08,0.03,0.15,0.05,0.2,0.05s0.1,0,0.13,0h2.95v4.32h-2.95
		l-3.89,3.65c-0.8,0.72-1.7,1.27-2.71,1.64s-2.04,0.56-3.1,0.56h-4.78C45.2,18.15,45.12,18.07,45.12,17.91z"/>
	<path class="st0" d="M63.27,19.97c0.45-0.42,0.72-0.82,0.83-1.22c0.1-0.4,0.16-1.05,0.16-1.94V8.4h4.42v8.4
		c0,1.46-0.17,2.65-0.49,3.58c-0.33,0.93-0.92,1.77-1.79,2.53c-0.86,0.76-2.14,1.56-3.82,2.39l-1.66-3.7
		C62.03,20.93,62.82,20.39,63.27,19.97z M66.42,16.83c-0.54-0.88-0.8-2.07-0.8-3.58V8.4h3.05v4.56c0,0.16,0.04,0.29,0.13,0.38
		c0.09,0.1,0.21,0.14,0.37,0.14h0.96c0.16,0,0.24,0.08,0.24,0.24v4.18c0,0.16-0.08,0.24-0.24,0.24h-0.96
		C67.88,18.15,66.96,17.71,66.42,16.83z"/>
	<path class="st0" d="M70.13,13.49h1.68c0.16,0,0.28-0.05,0.37-0.14c0.09-0.1,0.13-0.22,0.13-0.38V8.4h4.42v4.56
		c0,0.16,0.04,0.29,0.13,0.38c0.09,0.1,0.21,0.14,0.37,0.14h1.68c0.16,0,0.24,0.08,0.24,0.24v4.18c0,0.16-0.08,0.24-0.24,0.24h-1.68
		c-0.58,0-1.08-0.06-1.5-0.19s-0.83-0.34-1.21-0.62c-0.38,0.29-0.79,0.5-1.21,0.62s-0.92,0.19-1.5,0.19h-1.68
		c-0.16,0-0.24-0.08-0.24-0.24v-4.18C69.89,13.57,69.97,13.49,70.13,13.49z M70.8,20.07h3.72v3.72H70.8V20.07z M74.52,20.07h3.72
		v3.72h-3.72V20.07z"/>
	<path class="st0" d="M78.68,17.91v-4.18c0-0.16,0.08-0.24,0.24-0.24h1.73c0.16,0,0.28-0.05,0.37-0.14c0.09-0.1,0.13-0.22,0.13-0.38
		v-0.84h3.53v1.13c0,1.44-0.34,2.62-1.02,3.53c-0.68,0.91-1.68,1.37-3.01,1.37h-1.73C78.76,18.15,78.68,18.07,78.68,17.91z
		 M83.73,17.44c-0.81-0.5-1.44-1.19-1.9-2.05c-0.46-0.86-0.68-1.81-0.68-2.83v-0.89h-1.54V7.25h6.84c1.02,0,1.97,0.23,2.83,0.68
		s1.55,1.09,2.05,1.9c0.5,0.81,0.76,1.72,0.76,2.72c0,1.02-0.25,1.96-0.76,2.82c-0.5,0.86-1.19,1.54-2.05,2.05
		c-0.86,0.51-1.81,0.77-2.83,0.77C85.44,18.2,84.54,17.94,83.73,17.44z M87.17,13.26c0.18-0.18,0.26-0.42,0.26-0.71
		c0-0.27-0.09-0.49-0.26-0.65c-0.18-0.16-0.42-0.24-0.72-0.24h-0.94v0.89c0,0.29,0.08,0.52,0.25,0.71s0.4,0.28,0.68,0.28
		C86.76,13.54,87,13.45,87.17,13.26z"/>
	<path class="st0" d="M93.29,1.76h4.42v16.39h-4.42V1.76z"/>
</g>
<g>
	<path class="st0" d="M3.12,49.42c-0.96-0.56-1.72-1.32-2.28-2.28C0.28,46.18,0,45.14,0,44.02V38h4.2v5.79c0,0.56,0.2,1.04,0.6,1.45
		c0.4,0.4,0.89,0.6,1.45,0.6h5.38c0.24,0,0.43-0.07,0.56-0.21c0.13-0.14,0.19-0.32,0.19-0.55c0-0.17-0.05-0.32-0.15-0.46
		s-0.23-0.22-0.4-0.25l-6.22-1.44v-3.4c0-0.94,0.25-1.82,0.74-2.64c0.49-0.82,1.16-1.47,1.98-1.96c0.83-0.49,1.73-0.73,2.7-0.73
		h4.72v4.2h-4.77c-0.32,0-0.6,0.12-0.83,0.35C9.92,39,9.8,39.28,9.8,39.59l2.19,0.5l1.16,0.27c1.05,0.3,1.9,0.9,2.57,1.8
		c0.66,0.9,0.99,1.92,0.99,3.06c0,0.91-0.23,1.75-0.68,2.53c-0.46,0.78-1.07,1.39-1.85,1.84c-0.78,0.45-1.63,0.67-2.55,0.67H6.25
		C5.12,50.26,4.08,49.98,3.12,49.42z"/>
	<path class="st0" d="M17.97,40.71h6.04c0.4,0,0.59-0.16,0.59-0.48c0-0.12-0.05-0.22-0.14-0.31c-0.09-0.08-0.3-0.24-0.64-0.47
		l-5.13-3.53l2.39-3.47l5.81,4.04c0.62,0.49,1.09,1,1.41,1.55c0.32,0.55,0.48,1.23,0.48,2.05c0,0.96-0.23,1.82-0.7,2.59
		c-0.46,0.77-1.09,1.37-1.88,1.8c-0.79,0.43-1.65,0.65-2.58,0.65h-5.68V40.71z"/>
	<path class="st0" d="M34.59,46.88c0.64-0.36,1.06-0.66,1.25-0.91c0.2-0.25,0.3-0.53,0.3-0.83h-0.84c-0.97,0-1.87-0.22-2.69-0.65
		c-0.82-0.43-1.47-1.03-1.95-1.8c-0.48-0.77-0.72-1.63-0.72-2.59c0-0.97,0.24-1.87,0.73-2.69c0.49-0.82,1.14-1.47,1.95-1.95
		c0.81-0.48,1.71-0.72,2.68-0.72c0.96,0,1.82,0.24,2.59,0.72c0.77,0.48,1.37,1.13,1.8,1.95c0.43,0.82,0.65,1.72,0.65,2.69v3.17
		c0,1.57-0.21,2.82-0.64,3.77c-0.43,0.95-1.15,1.79-2.17,2.52c-1.02,0.73-2.53,1.52-4.54,2.37l-1.3-3.69
		C32.98,47.69,33.95,47.24,34.59,46.88z M36.14,40.99V40.1c0-0.29-0.08-0.52-0.23-0.68c-0.15-0.17-0.36-0.25-0.62-0.25
		c-0.27,0-0.5,0.08-0.67,0.25c-0.18,0.17-0.26,0.4-0.26,0.68c0,0.27,0.09,0.49,0.26,0.65c0.17,0.16,0.4,0.24,0.67,0.24H36.14z
		 M40.1,40.71h0.93c0.15,0,0.23,0.08,0.23,0.23v3.97c0,0.15-0.08,0.23-0.23,0.23H40.1V40.71z"/>
	<path class="st0" d="M40.81,44.91v-3.97c0-0.15,0.08-0.23,0.23-0.23h2.46c0.15,0,0.23,0.08,0.23,0.23v3.97
		c0,0.15-0.08,0.23-0.23,0.23h-2.46C40.89,45.13,40.81,45.06,40.81,44.91z"/>
	<path class="st0" d="M43.27,44.91v-3.97c0-0.15,0.08-0.23,0.23-0.23h2.46c0.15,0,0.23,0.08,0.23,0.23v3.97
		c0,0.15-0.08,0.23-0.23,0.23H43.5C43.35,45.13,43.27,45.06,43.27,44.91z"/>
	<path class="st0" d="M45.74,44.91v-3.97c0-0.15,0.08-0.23,0.23-0.23h2.46c0.15,0,0.23,0.08,0.23,0.23v3.97
		c0,0.15-0.08,0.23-0.23,0.23h-2.46C45.81,45.13,45.74,45.06,45.74,44.91z"/>
	<path class="st0" d="M48.2,44.91v-3.97c0-0.15,0.08-0.23,0.23-0.23h2.46c0.15,0,0.23,0.08,0.23,0.23v3.97
		c0,0.15-0.08,0.23-0.23,0.23h-2.46C48.27,45.13,48.2,45.06,48.2,44.91z"/>
	<path class="st0" d="M50.66,44.91v-3.97c0-0.15,0.08-0.23,0.23-0.23h2.46c0.15,0,0.23,0.08,0.23,0.23v3.97
		c0,0.15-0.08,0.23-0.23,0.23h-2.46C50.74,45.13,50.66,45.06,50.66,44.91z"/>
	<path class="st0" d="M53.12,44.91v-3.97c0-0.15,0.08-0.23,0.23-0.23h14.16c0.15,0,0.23,0.08,0.23,0.23v3.97
		c0,0.15-0.08,0.23-0.23,0.23H53.35C53.2,45.13,53.12,45.06,53.12,44.91z M65.98,41.89c-0.43,0.74-1.02,1.31-1.79,1.72
		c-0.77,0.41-1.64,0.62-2.61,0.62h-1.14c-0.97,0-1.84-0.21-2.61-0.62s-1.36-0.98-1.79-1.72c-0.43-0.74-0.64-1.59-0.64-2.56v-0.34
		h-1.46v-4.2h6.5h1.14h5.04v4.54C66.62,40.29,66.41,41.15,65.98,41.89z M62.47,38.98h-0.89h-1.14h-0.89v0.8
		c0,0.27,0.08,0.5,0.24,0.67c0.16,0.18,0.38,0.26,0.65,0.26h1.14c0.27,0,0.49-0.09,0.65-0.26c0.16-0.17,0.24-0.4,0.24-0.67V38.98z"
		/>
	<path class="st0" d="M67.28,44.91v-3.97c0-0.15,0.08-0.23,0.23-0.23h0.91c0.15,0,0.27-0.05,0.35-0.14
		c0.08-0.09,0.12-0.21,0.12-0.37v-4.33h3.35v4.61c0,1.37-0.32,2.49-0.97,3.35c-0.65,0.87-1.6,1.3-2.86,1.3h-0.91
		C67.36,45.13,67.28,45.06,67.28,44.91z M70.71,43.88c-0.65-0.87-0.97-1.98-0.97-3.35v-4.65h3.35v4.38c0,0.15,0.04,0.27,0.12,0.37
		c0.08,0.09,0.2,0.14,0.35,0.14c0.15,0,0.27-0.05,0.35-0.14c0.08-0.09,0.13-0.21,0.13-0.37v-4.38h3.35v4.65
		c0,1.37-0.32,2.49-0.97,3.35c-0.65,0.87-1.6,1.3-2.86,1.3S71.36,44.75,70.71,43.88z M75.86,43.88c-0.65-0.87-0.97-1.98-0.97-3.35
		v-4.65h3.35v4.38c0,0.15,0.04,0.27,0.12,0.37c0.08,0.09,0.2,0.14,0.35,0.14c0.15,0,0.27-0.05,0.35-0.14
		c0.08-0.09,0.12-0.21,0.12-0.37v-5.02h3.35v5.29c0,1.37-0.32,2.49-0.97,3.35c-0.65,0.87-1.6,1.3-2.86,1.3S76.51,44.75,75.86,43.88z
		 M81.02,43.84c-0.65-0.87-0.97-1.98-0.97-3.35v-5.24h3.35v4.97c0,0.15,0.04,0.27,0.12,0.37c0.08,0.09,0.2,0.14,0.35,0.14h0.91
		c0.15,0,0.23,0.08,0.23,0.23v3.97c0,0.15-0.08,0.23-0.23,0.23h-0.91C82.62,45.13,81.66,44.7,81.02,43.84z"/>
	<path class="st0" d="M84.56,44.91v-3.97c0-0.15,0.08-0.23,0.23-0.23h1.64c0.15,0,0.27-0.05,0.35-0.14
		c0.08-0.09,0.12-0.21,0.12-0.37v-0.8h3.35v1.07c0,1.37-0.32,2.49-0.97,3.35c-0.65,0.87-1.6,1.3-2.86,1.3h-1.64
		C84.64,45.13,84.56,45.06,84.56,44.91z M89.36,44.46c-0.77-0.48-1.37-1.13-1.8-1.95c-0.43-0.82-0.65-1.72-0.65-2.69v-0.84h-1.46
		v-4.2h6.5c0.97,0,1.87,0.22,2.69,0.65c0.82,0.43,1.47,1.03,1.95,1.8c0.48,0.77,0.72,1.63,0.72,2.59c0,0.97-0.24,1.87-0.72,2.68
		c-0.48,0.81-1.13,1.46-1.95,1.95c-0.82,0.49-1.72,0.73-2.69,0.73C90.99,45.18,90.13,44.94,89.36,44.46z M92.63,40.5
		c0.17-0.17,0.25-0.4,0.25-0.67c0-0.26-0.08-0.46-0.25-0.62c-0.17-0.15-0.39-0.23-0.68-0.23h-0.89v0.84c0,0.27,0.08,0.5,0.24,0.67
		c0.16,0.17,0.38,0.26,0.65,0.26C92.24,40.76,92.47,40.67,92.63,40.5z"/>
</g>
<g>
	<path class="st0" d="M150.33,6.49c-0.06-0.04-0.12-0.08-0.19-0.12c0.13-0.12,0.26-0.24,0.4-0.36c0.09-0.08,0.25-0.3,0.09-0.39
		c-1.05-0.63-2.11-1.26-3.16-1.89c-1.68-1-3.36-2.01-5.04-3.01c-0.38-0.23-0.77-0.46-1.15-0.69c-0.15-0.09-0.42,0.06-0.52,0.16
		c-2.21,2.3-4,4.98-5.66,7.69c-1.97,3.23-3.72,6.58-5.38,9.97c-0.58,1.19-1.15,2.39-1.71,3.59c-1.55,2.86-3.04,5.76-4.47,8.68
		c-1.19,2.43-2.33,4.88-3.44,7.34c-1.4-2.69-3.07-5.25-4.9-7.65c-0.17-0.22-0.33-0.43-0.5-0.65c-0.09-0.11-0.27-0.05-0.38,0
		c-0.14,0.07-0.28,0.14-0.42,0.21c-0.01-0.01-0.01-0.01-0.02-0.02c-0.12-0.15-0.32-0.29-0.51-0.32c-0.06-0.01-0.11,0-0.14,0.02
		c-0.02,0-0.04,0.01-0.05,0.02c-1.32,0.88-2.64,1.76-3.96,2.64c-1.81,0.9-3.62,1.81-5.43,2.71c-0.12-0.06-0.24-0.13-0.37-0.19
		c-0.26-0.14-0.9,0.41-0.61,0.56c0.13,0.07,0.26,0.14,0.39,0.2c0.03,0.08,0.1,0.1,0.18,0.1c2.59,1.37,5.08,2.92,7.46,4.63
		c0.44,0.31,0.87,0.63,1.29,0.96c1.92,1.67,3.74,3.45,5.48,5.3c1.08,1.14,2.14,2.31,3.17,3.5c0.07,0.08,0.58,0.49,0.67,0.29
		c0.05-0.09,0.09-0.18,0.14-0.28c0.04,0.05,0.09,0.1,0.13,0.15c0.19,0.22,0.59-0.1,0.69-0.28c1.52-2.62,2.94-5.29,4.36-7.96
		c1.59-2.99,3.16-5.99,4.78-8.96c0.68-1.24,1.37-2.49,2.07-3.72c1.14-1.72,2.31-3.41,3.51-5.09c1.97-2.77,4.02-5.48,6.13-8.14
		c2.09-2.63,4.25-5.2,6.48-7.7c0.28-0.32,0.56-0.63,0.85-0.94C150.7,6.74,150.37,6.52,150.33,6.49z M137.04,21.98
		c-0.56,0.89-1.11,1.79-1.66,2.69c-1.37,1.96-2.7,3.94-3.99,5.94c-1.84,2.85-3.61,5.76-5.3,8.71c-1.64,2.85-3.2,5.75-4.68,8.68
		c-1.79-1.95-3.69-3.79-5.71-5.51c-2.4-2.05-4.95-3.93-7.63-5.6c-0.78-0.49-1.56-0.96-2.36-1.41c-0.12-0.08-0.25-0.16-0.38-0.23
		c2.14-1.43,4.29-2.86,6.43-4.28c0.68-0.34,1.37-0.68,2.05-1.02c1.05,1.34,1.99,2.75,2.89,4.19c0.82,1.32,1.61,2.67,2.36,4.03
		c0.14,0.26,0.29,0.53,0.43,0.79c0.04,0.08,0.41,0.39,0.61,0.41c0.09,0.18,0.18,0.37,0.26,0.55c0.06,0.12,0.3,0.04,0.38,0
		c0.15-0.07,0.28-0.19,0.34-0.35c0.37-1.01,0.76-2.01,1.15-3.01c0.98-2.51,2.01-5.03,3.07-7.53c0.49-1.16,0.99-2.31,1.49-3.46
		c0.31-0.59,0.62-1.19,0.93-1.78c2.68-5.05,5.53-10.01,8.57-14.85c1.67-2.66,3.38-5.29,5.15-7.88c0.24,0.15,0.49,0.29,0.73,0.44
		c0.67,0.44,1.34,0.88,2.01,1.32c1.63,1.07,3.25,2.14,4.88,3.21c0.15,0.1,0.31,0.2,0.46,0.3c-2.3,2.11-4.39,4.45-6.33,6.89
		C140.97,16.01,138.94,18.96,137.04,21.98z M149.81,6.05c-0.02,0.02-0.04,0.04-0.06,0.06c-0.52-0.34-1.04-0.68-1.56-1.02
		c0.23,0.14,0.45,0.27,0.68,0.41C149.18,5.67,149.5,5.86,149.81,6.05z M139.64,2.2c-2.29,3.42-4.5,6.9-6.61,10.43
		c0.64-1.19,1.3-2.37,1.99-3.54C136.41,6.71,137.89,4.35,139.64,2.2z M122.44,34.38c-0.22,0.54-0.43,1.09-0.65,1.63
		c-0.33,0.84-0.66,1.68-0.98,2.53c-0.02,0.07-0.05,0.13-0.08,0.2c-0.05-0.1-0.1-0.2-0.15-0.3
		C121.19,37.08,121.81,35.72,122.44,34.38z M106.17,33.75c-0.54,0.36-1.08,0.72-1.61,1.08c-0.09-0.05-0.17-0.09-0.26-0.14
		C104.92,34.37,105.54,34.06,106.17,33.75z M120.9,49.01c-1.44-1.63-2.92-3.23-4.45-4.77c0.56,0.51,1.11,1.02,1.65,1.55
		c1,0.97,1.97,1.98,2.91,3.02C120.97,48.87,120.94,48.94,120.9,49.01z M126.69,40.37c-1.45,2.73-2.89,5.47-4.42,8.16
		c-0.05,0.09-0.1,0.17-0.15,0.26c-0.04-0.04-0.07-0.08-0.11-0.12c1.33-2.64,2.73-5.26,4.18-7.84c0.9-1.59,1.82-3.17,2.76-4.73
		C128.2,37.52,127.45,38.95,126.69,40.37z M140.59,17.56c0.76-1.08,1.53-2.15,2.33-3.2c1.77-2.31,3.66-4.53,5.73-6.58
		c-1.82,2.06-3.59,4.15-5.31,6.29C142.4,15.23,141.49,16.39,140.59,17.56z"/>
	<path class="st0" d="M113.58,31.92c-0.01-0.02-0.03-0.03-0.06-0.03c-0.08-0.02-0.18-0.01-0.26,0.01c-0.11,0.02-0.22,0.05-0.31,0.1
		c-0.37,0.18-0.73,0.37-1.09,0.57c-0.34,0.19-0.67,0.38-1,0.58c-0.33,0.2-0.65,0.41-0.96,0.62c-0.33,0.23-0.66,0.46-0.99,0.7
		c-0.31,0.23-0.61,0.47-0.91,0.71c-0.04,0.03-0.07,0.06-0.11,0.09c-0.02,0.01-0.04,0.03-0.04,0.06c-0.01,0.02,0,0.04,0.02,0.05
		c0.03,0.01,0.05,0.02,0.08,0.02c0.04,0.01,0.08,0.01,0.12,0c0.11-0.01,0.22-0.03,0.32-0.07c0.08-0.03,0.16-0.07,0.23-0.12
		c0.32-0.27,0.65-0.52,0.98-0.77c0.08-0.06,0.17-0.13,0.26-0.19c0.38-0.27,0.76-0.54,1.16-0.79c0.4-0.26,0.81-0.51,1.23-0.74
		c0.22-0.12,0.44-0.25,0.66-0.36c0.17-0.09,0.33-0.17,0.5-0.26c0.04-0.02,0.07-0.04,0.11-0.06c0.03-0.02,0.05-0.04,0.06-0.06
		C113.6,31.95,113.6,31.93,113.58,31.92z"/>
	<path class="st0" d="M145.38,8.48c0.18-0.21,0.35-0.42,0.5-0.65c0.16-0.23,0.3-0.48,0.37-0.75c0.03-0.13,0.06-0.26,0.01-0.38
		c-0.05-0.14-0.13-0.26-0.21-0.37c-0.24-0.32-0.54-0.59-0.84-0.85c-0.32-0.27-0.65-0.52-0.99-0.77c-0.34-0.24-0.69-0.48-1.04-0.7
		c-0.26-0.17-0.53-0.34-0.8-0.5c-0.14-0.08-0.28-0.17-0.42-0.25c-0.01,0-0.01-0.01-0.02-0.01c-0.04-0.02-0.13-0.09-0.19-0.08
		c-0.05,0.01-0.03,0.05-0.01,0.08c0.04,0.07,0.11,0.14,0.17,0.19c0.08,0.07,0.16,0.15,0.26,0.2c0.13,0.08,0.26,0.16,0.39,0.23
		c0.32,0.19,0.63,0.39,0.94,0.59c0.09,0.06,0.19,0.12,0.28,0.18c0.02,0.02,0.04,0.03,0.07,0.05c0,0,0,0,0,0
		c0.05,0.03,0.09,0.06,0.14,0.1c0.19,0.13,0.38,0.27,0.57,0.41c0.05,0.03,0.09,0.07,0.14,0.1c0.01,0.01,0.02,0.02,0.03,0.03
		c0.01,0.01,0.01,0.01,0.02,0.02c0.09,0.07,0.17,0.14,0.25,0.21c0.04,0.03,0.07,0.06,0.11,0.09c0.02,0.02,0.04,0.03,0.05,0.05
		c0.04,0.03,0.07,0.06,0.1,0.1c0.01,0.01,0.02,0.02,0.04,0.03c0.03,0.03,0.06,0.06,0.09,0.09c0.01,0.01,0.02,0.02,0.03,0.03
		c0.02,0.03,0.05,0.06,0.07,0.09c0.01,0.01,0.02,0.02,0.02,0.03c0,0,0,0,0,0c0.02,0.03,0.03,0.05,0.05,0.08
		c0.01,0.01,0.01,0.03,0.02,0.04c0,0,0,0.01,0,0.01c0.02,0.04,0.03,0.09,0.03,0.14c0,0.03,0,0.06,0,0.09
		c-0.03,0.21-0.12,0.4-0.22,0.58c-0.11,0.2-0.25,0.4-0.39,0.58c-0.32,0.42-0.68,0.81-1.02,1.21c-0.79,0.92-1.57,1.84-2.36,2.76
		c-0.44,0.52-0.88,1.04-1.33,1.56c-0.03,0.03,0.04,0.12,0.05,0.13c0.06,0.08,0.14,0.15,0.21,0.21c0.08,0.06,0.16,0.13,0.25,0.17
		c0.03,0.01,0.11,0.06,0.14,0.03c0.49-0.58,0.99-1.16,1.48-1.74c0.49-0.58,0.98-1.15,1.48-1.73C144.4,9.62,144.89,9.05,145.38,8.48z
		 M145.51,6.05C145.51,6.05,145.51,6.06,145.51,6.05C145.51,6.06,145.51,6.05,145.51,6.05z"/>
</g>
<g>
</g>
<g>
</g>
<g>
</g>
<g>
</g>
<g>
</g>
<g>
</g>
</svg>
